<svg xmlns="http://www.w3.org/2000/svg" viewBox="0 0 32 32" width="32" height="32">
  <defs>
    <linearGradient id="g" x1="4" y1="3" x2="28" y2="29" gradientUnits="userSpaceOnUse">
      <stop offset="0" stop-color="#7c6cff"/>
      <stop offset="1" stop-color="#a25bff"/>
    </linearGradient>
    <linearGradient id="s" x1="11" y1="8" x2="22" y2="24" gradientUnits="userSpaceOnUse">
      <stop offset="0" stop-color="#ffd27a"/>
      <stop offset="1" stop-color="#ff9d4d"/>
    </linearGradient>
  </defs>
  <rect width="32" height="32" rx="8" fill="#0c0a14"/>
  <g transform="translate(0 0)">
    <path d="M16 3.2c7.07 0 12.8 5.73 12.8 12.8 0 3.2-1.17 6.12-3.1 8.37l2.5 2.5a1.6 1.6 0 1 1-2.26 2.26l-2.62-2.62A12.74 12.74 0 0 1 16 28.8C8.93 28.8 3.2 23.07 3.2 16S8.93 3.2 16 3.2Zm0 4.3a8.5 8.5 0 1 0 0 17 8.5 8.5 0 0 0 0-17Z" fill="url(#g)"/>
    <path d="M16 9.4c.5 2.46 1.34 3.3 3.8 3.8-2.46.5-3.3 1.34-3.8 3.8-.5-2.46-1.34-3.3-3.8-3.8 2.46-.5 3.3-1.34 3.8-3.8Z" fill="url(#s)"/>
  </g>
</svg>
